<?xml version="1.0" encoding="UTF-8"?>
<!DOCTYPE svg PUBLIC "-//W3C//DTD SVG 1.1//EN" "http://www.w3.org/Graphics/SVG/1.1/DTD/svg11.dtd">
<svg xmlns="http://www.w3.org/2000/svg" version="1.1" width="2000px" height="820px" style="shape-rendering:geometricPrecision; text-rendering:geometricPrecision; image-rendering:optimizeQuality; fill-rule:evenodd; clip-rule:evenodd" xmlns:xlink="http://www.w3.org/1999/xlink">
<g><path style="opacity:0.968" fill="#003b92" d="M 1997.5,-0.5 C 1998.17,-0.5 1998.83,-0.5 1999.5,-0.5C 1999.5,1.16667 1999.5,2.83333 1999.5,4.5C 1989.45,28.4213 1974.45,48.9213 1954.5,66C 1912.75,99.7107 1865.75,123.711 1813.5,138C 1733.3,159.695 1651.64,171.028 1568.5,172C 1527.82,172.763 1487.16,172.43 1446.5,171C 1127.17,153 807.834,135 488.5,117C 378.433,113.554 268.766,118.554 159.5,132C 113.162,137.666 68.1624,148.666 24.5,165C 15.8612,168.653 7.52791,172.819 -0.5,177.5C -0.5,176.5 -0.5,175.5 -0.5,174.5C 21.9378,150.917 47.9378,132.084 77.5,118C 133.241,92.1455 191.574,74.8121 252.5,66C 335.765,53.7926 419.431,49.7926 503.5,54C 810.504,71.5967 1117.5,89.2634 1424.5,107C 1530.78,111.303 1636.78,107.636 1742.5,96C 1798.83,90.0007 1853.83,78.0007 1907.5,60C 1935.63,50.2791 1960.96,35.9457 1983.5,17C 1988.78,11.5615 1993.45,5.72821 1997.5,-0.5 Z"/></g>
<g><path style="opacity:0.984" fill="#de022e" d="M 1698.5,196.5 C 1732.52,196.106 1766.52,196.606 1800.5,198C 1861.18,208.677 1900.68,243.51 1919,302.5C 1921.64,312.678 1923.31,323.011 1924,333.5C 1924.67,387.167 1924.67,440.833 1924,494.5C 1918.58,559.228 1885.75,603.395 1825.5,627C 1815.71,630.026 1805.71,632.026 1795.5,633C 1759.83,633.667 1724.17,633.667 1688.5,633C 1639.96,626.756 1603.46,602.59 1579,560.5C 1568.75,541.425 1562.75,521.092 1561,499.5C 1560.33,443.833 1560.33,388.167 1561,332.5C 1566.1,277.749 1592.6,237.249 1640.5,211C 1659.02,202.371 1678.35,197.537 1698.5,196.5 Z M 1715.5,304.5 C 1733.5,304.333 1751.5,304.5 1769.5,305C 1789.69,308.853 1802.52,320.686 1808,340.5C 1809.14,365.127 1809.64,389.794 1809.5,414.5C 1809.64,439.534 1809.14,464.534 1808,489.5C 1803.33,506.832 1792.5,518.332 1775.5,524C 1764.39,525.121 1753.22,525.621 1742,525.5C 1732.17,525.333 1722.33,525.167 1712.5,525C 1693.78,520.611 1681.94,509.111 1677,490.5C 1675.86,465.534 1675.36,440.534 1675.5,415.5C 1675.36,390.466 1675.86,365.466 1677,340.5C 1682.67,320.655 1695.51,308.655 1715.5,304.5 Z"/></g>
<g><path style="opacity:0.983" fill="#de022e" d="M 95.5,208.5 C 187.834,208.333 280.167,208.5 372.5,209C 409.784,215.949 435.284,237.116 449,272.5C 451.433,279.999 453.1,287.666 454,295.5C 454.667,312.167 454.667,328.833 454,345.5C 450.087,372.999 437.587,395.666 416.5,413.5C 446.427,439.579 459.094,472.579 454.5,512.5C 458.965,551.289 446.965,583.789 418.5,610C 402.638,622.291 384.638,629.291 364.5,631C 274.483,631.821 184.483,631.654 94.5,630.5C 94.6299,489.833 94.9632,349.166 95.5,208.5 Z M 214.5,313.5 C 247.502,313.333 280.502,313.5 313.5,314C 328.063,318.403 335.73,328.236 336.5,343.5C 334.748,361.752 324.748,371.919 306.5,374C 292.925,374.176 279.425,374.676 266,375.5C 251.333,402.833 236.667,430.167 222,457.5C 221.503,459.81 221.337,462.143 221.5,464.5C 249.5,464.5 277.5,464.5 305.5,464.5C 305.5,463.167 305.5,461.833 305.5,460.5C 315.207,462.109 322.707,467.109 328,475.5C 340.417,495.218 338.917,513.718 323.5,531C 319.613,534.111 315.28,536.444 310.5,538C 277.835,538.5 245.168,538.667 212.5,538.5C 213.847,503.819 215.514,469.152 217.5,434.5C 215.272,394.199 214.272,353.866 214.5,313.5 Z"/></g>
<g><path style="opacity:0.983" fill="#de022e" d="M 1173.5,208.5 C 1266.17,208.333 1358.83,208.5 1451.5,209C 1474.26,211.128 1492.76,220.961 1507,238.5C 1525.55,262.808 1535.38,290.308 1536.5,321C 1537.1,358.711 1522.76,389.377 1493.5,413C 1513.97,429.816 1526.47,451.316 1531,477.5C 1531.67,500.5 1531.67,523.5 1531,546.5C 1523.7,589.805 1498.86,617.305 1456.5,629C 1451.88,629.958 1447.21,630.625 1442.5,631C 1352.48,631.821 1262.48,631.654 1172.5,630.5C 1172.53,489.832 1172.86,349.166 1173.5,208.5 Z M 1366.5,313.5 C 1377.08,312.711 1387.42,313.877 1397.5,317C 1412.99,326.806 1417.49,340.306 1411,357.5C 1406.72,365.399 1400.22,370.566 1391.5,373C 1375.87,374.216 1360.2,374.883 1344.5,375C 1329.12,404.266 1314.12,433.766 1299.5,463.5C 1329.88,464.031 1360.21,464.864 1390.5,466C 1410.26,477.94 1417.09,495.107 1411,517.5C 1406.65,527.85 1399.15,534.683 1388.5,538C 1355.84,538.5 1323.17,538.667 1290.5,538.5C 1290.5,463.833 1290.5,389.167 1290.5,314.5C 1316.01,314.831 1341.34,314.498 1366.5,313.5 Z"/></g>
<g><path style="opacity:0.983" fill="#de022e" d="M 491.5,209.5 C 530.5,209.5 569.5,209.5 608.5,209.5C 608.5,349.5 608.5,489.5 608.5,629.5C 569.5,629.5 530.5,629.5 491.5,629.5C 491.5,489.5 491.5,349.5 491.5,209.5 Z"/></g>
<g><path style="opacity:0.983" fill="#de022e" d="M 657.5,209.5 C 707.168,209.333 756.834,209.5 806.5,210C 824.95,213.774 838.116,224.274 846,241.5C 849.888,249.945 853.222,258.612 856,267.5C 867.794,322.139 879.461,376.805 891,431.5C 902.918,377.911 914.585,324.244 926,270.5C 930.821,250.346 940.654,233.18 955.5,219C 962.145,214.345 969.478,211.345 977.5,210C 1026.83,209.5 1076.17,209.333 1125.5,209.5C 1125.67,349.167 1125.5,488.834 1125,628.5C 1085.91,629.497 1046.74,629.83 1007.5,629.5C 1009.11,541.173 1009.94,452.839 1010,364.5C 989.051,452.747 968.551,541.081 948.5,629.5C 910.167,629.5 871.833,629.5 833.5,629.5C 814.163,535.148 794.663,440.815 775,346.5C 774.667,441.167 774.333,535.833 774,630.5C 734.906,631.497 695.739,631.83 656.5,631.5C 657.197,490.834 657.53,350.168 657.5,209.5 Z"/></g>
<g><path style="opacity:0.727" fill="#de022e" d="M 1912.5,589.5 C 1934.21,587.721 1946.54,597.555 1949.5,619C 1946.05,642.444 1932.72,651.777 1909.5,647C 1895.15,640.471 1888.98,629.304 1891,613.5C 1893.47,601.199 1900.64,593.199 1912.5,589.5 Z M 1916.5,595.5 C 1935.11,596.273 1943.61,605.94 1942,624.5C 1935.03,641.732 1923.2,646.232 1906.5,638C 1898.49,631.288 1895.65,622.788 1898,612.5C 1901.19,603.472 1907.36,597.806 1916.5,595.5 Z M 1914.5,608.5 C 1918.18,608.335 1921.85,608.501 1925.5,609C 1927.66,610.312 1927.99,611.978 1926.5,614C 1922.51,614.499 1918.51,614.666 1914.5,614.5C 1914.5,612.5 1914.5,610.5 1914.5,608.5 Z"/></g>
<g><path style="opacity:0.714" fill="#de022e" d="M 1907.5,602.5 C 1914.51,602.334 1921.51,602.5 1928.5,603C 1934.48,606.363 1935.98,611.197 1933,617.5C 1930.92,619.123 1928.75,620.623 1926.5,622C 1929.55,626.531 1931.88,631.364 1933.5,636.5C 1931.08,636.808 1928.74,636.474 1926.5,635.5C 1923.91,631.326 1921.58,626.993 1919.5,622.5C 1917.95,621.548 1916.29,621.215 1914.5,621.5C 1914.5,626.5 1914.5,631.5 1914.5,636.5C 1912.21,636.756 1910.04,636.423 1908,635.5C 1907.5,624.505 1907.33,613.505 1907.5,602.5 Z M 1914.5,608.5 C 1914.5,610.5 1914.5,612.5 1914.5,614.5C 1918.51,614.666 1922.51,614.499 1926.5,614C 1927.99,611.978 1927.66,610.312 1925.5,609C 1921.85,608.501 1918.18,608.335 1914.5,608.5 Z"/></g>
<g><path style="opacity:0.968" fill="#003b92" d="M 1999.5,641.5 C 1999.5,643.5 1999.5,645.5 1999.5,647.5C 1985.15,678.63 1963.81,704.13 1935.5,724C 1898.89,748.802 1859.22,767.469 1816.5,780C 1743.25,800.465 1668.58,811.798 1592.5,814C 1537.82,816.111 1483.15,815.778 1428.5,813C 1115.17,795.259 801.838,777.593 488.5,760C 398.34,757.472 308.34,760.139 218.5,768C 164.316,772.586 110.983,781.919 58.5,796C 38.693,801.426 20.0264,809.259 2.5,819.5C 1.5,819.5 0.5,819.5 -0.5,819.5C -0.5,818.833 -0.5,818.167 -0.5,817.5C 23.0317,792.88 50.365,773.38 81.5,759C 142.403,731.591 206.07,713.924 272.5,706C 349.562,696.22 426.896,693.22 504.5,697C 811.51,714.482 1118.51,732.149 1425.5,750C 1531.12,754.177 1636.45,750.511 1741.5,739C 1797.06,732.954 1851.4,721.287 1904.5,704C 1936.06,693.819 1963.89,677.652 1988,655.5C 1992.08,650.935 1995.91,646.268 1999.5,641.5 Z"/></g>
</svg>
